<?xml version="1.0" encoding="utf-8"?>
<!-- Generator: Adobe Illustrator 25.2.1, SVG Export Plug-In . SVG Version: 6.00 Build 0)  -->
<svg version="1.1" id="katman_1" xmlns="http://www.w3.org/2000/svg" xmlns:xlink="http://www.w3.org/1999/xlink" x="0px" y="0px"
	 viewBox="0 0 781.1 182.1" style="enable-background:new 0 0 781.1 182.1;" xml:space="preserve">
<style type="text/css">
	.st0{fill-rule:evenodd;clip-rule:evenodd;fill:#FFFFFF;}
</style>
<path class="st0" d="M55.9,75.7C54.5,58.3,67.4,40.4,89,40.4c7.2,0,14.7,1.8,21,4.8c17.2,8.1,29,25.6,29,45.8
	c0,18.7-10.1,35-25.2,43.8c7.3-7.2,11.6-17.4,10.7-28.8c-1.5-18.6-19-33.7-34.9-33.7C74.8,72.3,69,85.2,70.4,94c0.5,3.3,2,6.3,4,8.7
	c-2.7-1.4-5.2-3.3-7.6-5.5C60.4,91.3,56.5,83.6,55.9,75.7z M120.9,106.3c1.4,17.4-11.5,35.3-33.1,35.3c-7.2,0-14.7-1.8-21-4.8
	c-17.2-8.1-29-25.6-29-45.8c0-18.7,10.1-35,25.2-43.8C55.8,54.4,51.4,64.7,52.4,76c1.5,18.6,19,33.7,34.9,33.7
	c14.8,0,20.6-12.9,19.1-21.7c-0.5-3.3-2-6.3-4-8.7c2.7,1.4,5.2,3.3,7.6,5.5C116.4,90.8,120.3,98.4,120.9,106.3z M194.3,96.5v-8.1h27
	c0.3,1.4,0.4,3.1,0.4,4.9c0,6-1.7,13.5-7,18.9c-5.2,5.4-11.8,8.3-20.6,8.3c-16.3,0-29.9-13.2-29.9-29.5s13.7-29.5,29.9-29.5
	c9,0,15.4,3.5,20.2,8.1l-5.7,5.7c-3.5-3.2-8.1-5.8-14.5-5.8c-11.9,0-21.2,9.6-21.2,21.5s9.3,21.5,21.2,21.5c7.7,0,12.1-3.1,14.9-5.9
	c2.3-2.3,3.8-5.6,4.4-10L194.3,96.5L194.3,96.5z M243.8,120.5c10.5,0,19.1-8.1,19.1-19c0-11-8.6-19-19.1-19s-19.1,8.1-19.1,19
	S233.3,120.5,243.8,120.5z M243.8,90c5.8,0,10.7,4.7,10.7,11.5s-5,11.5-10.7,11.5s-10.7-4.7-10.7-11.5S238,90,243.8,90z
	 M304.5,101.5c0,10.9-8.6,19-19.1,19s-19.1-8.1-19.1-19s8.6-19,19.1-19S304.5,90.5,304.5,101.5z M296.1,101.5
	c0-6.8-5-11.5-10.7-11.5s-10.7,4.7-10.7,11.5s5,11.5,10.7,11.5C291.2,113.1,296.1,108.3,296.1,101.5z M344.4,117.8V83.7h-7.9v3.1
	h-0.3c-1.9-2.2-5.5-4.2-10-4.2c-9.5,0-18.2,8.4-18.2,19.1s8.7,18.9,18.2,18.9c4.5,0,8.1-2,10-4.3h0.3v2.7c0,7.3-3.9,11.2-10.1,11.2
	c-5.1,0-8.3-3.7-9.6-6.8l-7.3,3c2.1,5,7.6,11.2,16.8,11.2C336.1,137.6,344.4,131.8,344.4,117.8z M326.9,90c5.7,0,10.1,4.9,10.1,11.6
	c0,6.6-4.4,11.5-10.1,11.5s-10.6-4.8-10.6-11.5S321.2,90,326.9,90z M358.5,63.7v55.7h-8.4V63.7H358.5z M397.2,112.1l-6.5-4.3l0,0
	c-2.2,3.2-5.1,5.3-9.4,5.3s-7.3-1.9-9.2-5.8l25.4-10.5l-0.9-2.2c-1.6-4.2-6.5-12.1-16.3-12.1s-17.9,7.7-17.9,19
	c0,10.7,8.1,19,18.9,19C390.1,120.5,395.1,115.2,397.2,112.1z M387.8,93.9l-17,7.1l0,0c-0.2-7.3,5.7-11.1,9.9-11.1
	C384.1,89.9,386.9,91.5,387.8,93.9z M422.4,67.1h16.7c18.4,0,26.8,10.1,26.8,26.3c0,16.1-8.5,26.1-26.8,26.1h-16.7V67.1z
	 M438.9,113.2c14.5,0,19.5-7.5,19.5-19.8c0-12.4-5-20.1-19.5-20.1h-9.1v39.9H438.9L438.9,113.2z M476.7,102.6h29.1
	c0.1-1.4,0.1-2.5,0.1-3.5c0-9.6-6.9-17.7-17.8-17.7c-11.1,0-18.6,7.9-18.6,19.6c0,11.6,7.6,19.3,18.5,19.3c8.7,0,14.8-5.2,16.8-12.2
	h-7.4c-1.5,3.7-4.8,6.1-9.4,6.1C482.2,114.2,477.1,110.2,476.7,102.6z M488,87.6c5.8,0,10.2,3.7,10.5,9.8h-21.7
	C477.7,90.9,482.4,87.6,488,87.6z M546.1,102.6H517c0.5,7.6,5.5,11.6,11.3,11.6c4.6,0,7.9-2.4,9.4-6.1h7.4c-2,7-8.1,12.2-16.8,12.2
	c-10.9,0-18.5-7.7-18.5-19.3c0-11.8,7.6-19.6,18.6-19.6c10.9,0,17.8,8.1,17.8,17.7C546.2,100.1,546.2,101.2,546.1,102.6z
	 M538.8,97.4c-0.3-6.1-4.7-9.8-10.5-9.8c-5.5,0-10.3,3.4-11.2,9.8H538.8z M557.2,82.3h-6.7v53.6h7.4v-22.3c2.5,4.3,7.2,6.7,13.1,6.7
	c10.9,0,18.4-8.2,18.4-19.4s-7.5-19.5-18.3-19.5c-6.7,0-10.8,3.2-13.2,6.8L557.2,82.3z M569.9,87.9c7,0,12,5.3,12,13
	c0,7.8-4.9,13-12,13c-7,0-12-5.2-12-13C558,93.2,563,87.9,569.9,87.9z M647.2,67.1v52.4h-7.4V80l-16.5,32h-5.7l-16.5-32v39.5h-7.4
	V67.1h8.7l18.1,35.4l18-35.4H647.2z M656.6,65.6c-2.8,0-4.9,2-4.9,4.6s2.1,4.7,4.9,4.7c2.8,0,4.9-2,4.9-4.7S659.4,65.6,656.6,65.6z
	 M660.3,82.3h-7.4v37.1h7.4V82.3z M700.3,98v21.4H693V98.8c0-7.3-3.1-11-9.1-11c-6.1,0-10.5,4.4-10.5,12.5v19.2H666V82.3h6.6
	l0.5,6.5c2.4-4.6,7-7.4,12.8-7.4C694.9,81.4,700.3,86.9,700.3,98z M722.7,81.2c-10.9,0-18.3,8.2-18.3,19.4s7.4,19.5,18.2,19.5
	c6.7,0,10.8-3.2,13.2-6.8l0.8,5.9h6.7V65.4h-7.4V88C733.4,83.7,728.7,81.2,722.7,81.2z M723.8,87.7c7,0,12,5.2,12,13
	c0,7.7-4.9,13-12,13c-7,0-12-5.3-12-13C711.9,92.9,716.9,87.7,723.8,87.7z"/>
</svg>
