<?xml version="1.0" encoding="utf-8"?>
<!-- Generator: Adobe Illustrator 25.2.1, SVG Export Plug-In . SVG Version: 6.00 Build 0)  -->
<svg version="1.1" id="Layer_1" xmlns="http://www.w3.org/2000/svg" xmlns:xlink="http://www.w3.org/1999/xlink" x="0px" y="0px"
	 viewBox="0 0 800 800" style="enable-background:new 0 0 800 800;" xml:space="preserve">
<style type="text/css">
	.st0{fill:#FFFFFF;}
</style>
<path class="st0" d="M400,663.3c8.7,0,15.1-6.4,16.7-15.4c23.8-183.5,49.6-211.3,231-231.4c9.4-1,15.7-8,15.7-16.7
	s-6.4-15.4-15.7-16.7c-181.5-20.1-207.3-47.9-231-231.4c-1.7-9-8-15.1-16.7-15.1s-15.1,6-16.4,15.1
	c-23.8,183.5-49.9,211.3-231,231.4c-9.7,1.3-16.1,8-16.1,16.7s6.4,15.7,16.1,16.7c180.8,23.8,205.9,48.2,231,231.4
	C384.9,657,391.3,663.3,400,663.3z"/>
</svg>
